# xmcd CD database file
#
# Track frame offsets:
#	150
#	21190
#	46375
#
# Disc length: 883 seconds
#
# Revision: 0
# Processed by: cddbd v1.5PL3 Copyright (c) Steve Scherf et al.
# Submitted via: CDex 1.51
#
DISCID=1d037103
DTITLE=Amika - オレンジの匂い
DYEAR=1999
DGENRE=JPop
TTITLE0=オレンジの匂い
TTITLE1=終わりかけた春
TTITLE2=世界（Live）
EXTD=YEAR: 1999
EXTT0=
EXTT1=
EXTT2=
PLAYORDER=
